<?xml version="1.0" encoding="utf-8"?>
<svg id="master-artboard" viewBox="0 0 350 350.5" version="1.1" xmlns="http://www.w3.org/2000/svg" x="0px" y="0px" style="enable-background:new 0 0 336 235.2;" width="350px" height="350.5px"><defs><style id="ee-google-fonts">@import url(https://fonts.googleapis.com/css?family=Allerta+Stencil:400);</style></defs><rect id="ee-background" x="0" y="0" width="350" height="350.5" style="fill: white; fill-opacity: 0; pointer-events: none;"/>














<g transform="matrix(5.340952873229981, 0, 0, 5.340952873229981, -393.5147705078125, -335.1440734863281)"><g id="g-1" transform="matrix(1, 0, 0, 1, 0, 0)">
	<g id="g-2">
		<path class="st0" d="M58,49h100v100H58V49z" style="fill: rgb(51, 51, 51);"/>
	</g>
</g></g><g transform="matrix(0.9348775744438171, 0, 0, 0.9348775744438171, 5.053324824410851, 14.21259495975822)"><path d="M 123.4000015258789 386.3999938964844 L 123.4000015258789 144.60000610351562 L 27.700000762939453 144.60000610351562 L 27.700000762939453 45 L 319 45 L 319 144.60000610351562 L 223 144.60000610351562 L 223 386.3999938964844 Z" id="path-1" class="st1" style="fill: rgb(246, 246, 246); opacity: 1;" transform="matrix(1, 0, 0, 1, 0, 0)"/></g><path fill="#CCCCCC" d="M835.1,559.4c0-18-17-32.6-37.9-32.6c-21,0-37.9,14.6-37.9,32.6c0,18,17,32.6,37.9,32.6&#10;&#9;&#9;&#9;&#9;C818.2,592,835.1,577.4,835.1,559.4z M796.7,562.5c0.2-1.2,0.4-2.6,0.8-4c0.4-1.4,0.8-2.9,1.4-4.5c0.7-1.5,1.5-3.1,2.8-4.6&#10;&#9;&#9;&#9;&#9;c1.3-1.5,3.1-2.9,5.5-3.4c0.3-0.1,0.7-0.1,0.9-0.2l0.6,0l0.3,0l0.2,0l0,0l0.1,0l0.2,0l0.8,0.1c1.1,0.1,2.2,0.4,3.1,0.9&#10;&#9;&#9;&#9;&#9;c2,0.9,3.4,2.5,4.5,4c1,1.5,1.6,3.1,2.1,4.5c0.5,1.5,0.8,2.8,1,4.1c0.4,2.5,0.5,4.6,0.5,6.1c0,0.7,0,1.3,0,1.7c0,0.4,0,0.6,0,0.6&#10;&#9;&#9;&#9;&#9;c-0.1,1.2-1.1,2-2.2,2c-1.1-0.1-1.9-0.9-2-1.9l0-0.1c0,0,0-0.2,0-0.5c0-0.4-0.1-0.9-0.2-1.5c-0.1-1.3-0.4-3.2-0.9-5.3&#10;&#9;&#9;&#9;&#9;c-0.5-2.1-1.3-4.6-2.6-6.5c-0.3-0.4-0.7-0.9-1.1-1.2c-0.2-0.2-0.4-0.3-0.6-0.5c-0.2-0.1-0.4-0.3-0.6-0.3&#10;&#9;&#9;&#9;&#9;c-0.4-0.2-0.9-0.3-1.4-0.4l-0.4,0l-0.1,0l0,0l-0.2,0l-0.6,0c-0.1,0-0.2,0.1-0.2,0.1c-0.1,0-0.4,0.1-0.6,0.2&#10;&#9;&#9;&#9;&#9;c-0.2,0.1-0.4,0.2-0.6,0.3c-0.4,0.2-0.8,0.6-1.2,1c-0.8,0.8-1.4,2-2,3.2c-1.1,2.4-1.8,4.9-2.3,7.1c-0.5,2.2-0.8,4.1-0.9,5.4&#10;&#9;&#9;&#9;&#9;c-0.1,0.7-0.1,1.2-0.2,1.5c0,0.3-0.1,0.5-0.1,0.5l0,0.1c-0.1,1.2-1.2,2-2.3,1.9c-1.1-0.1-1.9-1-1.9-2c0,0,0-0.2,0-0.6&#10;&#9;&#9;&#9;&#9;c0-0.4,0-1,0-1.7c0-0.7,0.1-1.6,0.1-2.6C796.4,564.9,796.5,563.7,796.7,562.5z" style="fill: rgb(18, 18, 18);" transform="matrix(1.003212332725525, 0, 0, 1.003212332725525, -693.1534792998891, -463.53997802734375)"/><path fill="#CCCCCC" d="M955.8,559.4c0-17.9-16.9-32.4-37.7-32.4c-20.8,0-37.7,14.5-37.7,32.4c0,17.9,16.9,32.4,37.7,32.4&#10;&#9;&#9;&#9;&#9;C938.9,591.8,955.8,577.3,955.8,559.4z M894.2,559.4c0.2-1.3,0.5-2.6,1-4.1c0.5-1.5,1.1-3,2.1-4.5c1-1.5,2.4-3.1,4.5-4&#10;&#9;&#9;&#9;&#9;c1-0.5,2.1-0.7,3.1-0.9l0.8-0.1l0.2,0l0.1,0l0,0l0.2,0l0.3,0l0.6,0c0.3,0,0.6,0.1,0.9,0.2c2.4,0.5,4.2,1.9,5.5,3.4&#10;&#9;&#9;&#9;&#9;c1.3,1.5,2.1,3.1,2.8,4.6c0.7,1.5,1.1,3,1.4,4.5c0.4,1.4,0.6,2.8,0.8,4c0.2,1.2,0.3,2.4,0.4,3.4c0.1,1,0.1,1.9,0.1,2.6&#10;&#9;&#9;&#9;&#9;c0,0.7,0,1.3,0,1.7c0,0.4,0,0.6,0,0.6c0,1.2-1,2.1-2.1,2.1c-1.1,0-1.9-0.8-2-1.9l0-0.1c0,0,0-0.2-0.1-0.5c0-0.4-0.1-0.9-0.2-1.5&#10;&#9;&#9;&#9;&#9;c-0.2-1.3-0.5-3.2-0.9-5.4c-0.5-2.2-1.2-4.8-2.3-7.1c-0.5-1.2-1.2-2.3-2-3.2c-0.4-0.4-0.8-0.8-1.2-1c-0.2-0.2-0.4-0.2-0.6-0.3&#10;&#9;&#9;&#9;&#9;c-0.2-0.1-0.5-0.2-0.6-0.2c-0.1,0-0.1,0-0.2-0.1l-0.6,0l-0.2,0l0,0l-0.1,0l-0.4,0c-0.5,0.1-1,0.2-1.4,0.4&#10;&#9;&#9;&#9;&#9;c-0.2,0.1-0.4,0.2-0.6,0.3c-0.2,0.2-0.4,0.3-0.6,0.5c-0.4,0.3-0.7,0.8-1.1,1.2c-1.3,1.9-2.1,4.4-2.6,6.5c-0.5,2.2-0.8,4-0.9,5.3&#10;&#9;&#9;&#9;&#9;c-0.1,0.7-0.1,1.2-0.2,1.5c0,0.3,0,0.5,0,0.5l0,0.1c-0.1,1.2-1.1,2-2.3,1.9c-1.1-0.1-1.9-0.9-1.9-2c0,0,0-0.2,0-0.6&#10;&#9;&#9;&#9;&#9;c0-0.4,0-1,0-1.7C893.8,564,893.8,561.9,894.2,559.4z" style="fill: rgb(8, 8, 8);" transform="matrix(0.9579104781150818, 0, 0, 0.9579104781150818, -652.6145999053577, -438.5796075623312)"/><path fill="#CCCCCC" d="M1328.9,607.9c-1.7,13.9-23.5,15.2-23.4-0.2l0-16.4c0-0.1,0-0.1,0-0.2c12.6-1.1,22.1-6.9,22.1-13.9&#10;&#9;&#9;&#9;&#9;c0-7.8-11.9-14.1-26.5-14.1c-14.6,0-26.5,6.3-26.5,14.1c0,7,9.6,12.8,22.1,13.9c0,0.1,0,0.1,0,0.2l0,16.3&#10;&#9;&#9;&#9;&#9;c0,15.9-21.7,13.9-23.4,0.3c-0.7-5.5-9.4-4.6-8.6,1.3c2.6,19.3,27.1,23.8,36.4,11.9c9.2,11.9,33.8,7.4,36.4-11.9&#10;&#9;&#9;&#9;&#9;C1338.3,603.3,1329.6,602.4,1328.9,607.9z" style="fill: rgb(17, 17, 17);" transform="matrix(0.781211793422699, 0, 0, 0.781211793422699, -851.1856930633921, -262.7711053650656)"/><path fill="#CCCCCC" d="M1193.6,541.6c-5,0-9,4-9,9c0,5,4,9,9,9s9-4,9-9C1202.6,545.6,1198.6,541.6,1193.6,541.6z M1185.6,550.6&#10;&#9;&#9;&#9;&#9;c0-4.4,3.6-8,8-8c4.4,0,8,3.6,8,8c0,4.4-3.6,8-8,8C1189.2,558.6,1185.6,555,1185.6,550.6z" style="fill: rgb(228, 228, 228);" transform="matrix(1.2017246484756468, 0, 0, 1.2017246484756468, -1343.6248523316938, -575.444674550299)"/><path fill="#CCCCCC" d="M1416.9,541.6c-5,0-9,4-9,9c0,5,4,9,9,9c5,0,9-4,9-9C1425.9,545.6,1421.9,541.6,1416.9,541.6z&#10;&#9;&#9;&#9;&#9; M1416.9,558.6c-4.4,0-8-3.6-8-8c0-4.4,3.6-8,8-8c4.4,0,8,3.6,8,8C1424.9,555,1421.3,558.6,1416.9,558.6z" style="fill: rgb(255, 255, 255);" transform="matrix(1.1567509174346924, 0, 0, 1.1567509174346924, -1398.4639976170668, -554.7952476888022)"/></svg>